<svg width="297" height="79" viewBox="0 0 297 79" fill="none" xmlns="http://www.w3.org/2000/svg">
<g clip-path="url(#clip0_2_2)">
<line x1="7.29101" y1="66.4109" x2="127.574" y2="66.4109" stroke="#AB795E" stroke-width="5.61497" stroke-linecap="round"/>
<path d="M39.7903 50.8119L41.317 49.7941C38.5605 44.4931 37.1823 38.6832 37.1823 32.3644C37.1823 27.4451 38.3909 23.2679 40.8081 19.8329C43.2678 16.3979 46.724 14.6804 51.1769 14.6804C53.5093 14.6804 55.4813 15.0832 57.0928 15.889C56.6687 18.2638 55.9053 22.3986 54.8027 28.2933C52.4279 40.9732 51.2405 48.2462 51.2405 50.1121C51.2405 54.1409 51.919 57.1518 53.276 59.145C51.4101 60.3748 49.6926 61.223 48.1235 61.6895C46.5544 62.156 44.5188 62.3892 42.0168 62.3892C39.5571 62.3892 37.3095 61.8591 35.2739 60.7989C33.2807 59.7387 31.6268 58.3392 30.3122 56.6005C29.04 54.8194 27.9586 52.6354 27.068 50.0485C25.4989 45.5109 24.5447 39.7434 24.2055 32.7461H23.1877C21.2369 41.5669 20.2615 47.7373 20.2615 51.2571C20.2615 54.777 20.8976 57.5547 22.1699 59.5903C19.6254 61.4986 16.9749 62.4528 14.2184 62.4528C11.4619 62.4528 9.48993 61.6683 8.30251 60.0992C7.11509 58.4877 6.52138 56.1128 6.52138 52.9747C6.52138 49.7941 7.85723 40.8248 10.5289 26.0669L7.1575 19.2604C11.9072 16.207 16.148 14.6804 19.8799 14.6804C23.6118 14.6804 26.4319 15.3377 28.3402 16.6523C30.2486 17.9246 31.5844 19.8117 32.3478 22.3138C33.1111 24.8158 33.6624 27.4663 34.0017 30.2652C34.3833 33.0218 35.0195 36.3508 35.91 40.2523C36.843 44.1538 38.1364 47.6737 39.7903 50.8119ZM85.5347 52.9747L84.8986 52.6566C83.7535 55.71 82.0996 58.106 79.9368 59.8447C77.8164 61.541 75.4416 62.3892 72.8123 62.3892C69.2077 62.3892 66.3239 61.0321 64.1611 58.318C61.9983 55.6039 60.9169 51.9781 60.9169 47.4404C60.9169 40.4007 63.2706 34.506 67.9778 29.7564C72.7275 25.0067 78.6222 22.6318 85.6619 22.6318C87.4854 22.6318 89.1606 22.8015 90.6872 23.1407C90.9417 24.3281 91.0901 25.3671 91.1325 26.2577C93.2529 24.9007 95.4369 24.2221 97.6845 24.2221C100.78 24.2221 102.328 25.8972 102.328 29.2475C102.328 30.4349 101.65 34.0183 100.293 39.9978C98.978 45.9774 98.3206 50.409 98.3206 53.2927C98.3206 56.1764 98.978 58.1696 100.293 59.2722C97.9178 61.3502 95.4369 62.3892 92.85 62.3892C90.3056 62.3892 88.4396 61.6259 87.2522 60.0992C86.1072 58.5725 85.5347 56.1977 85.5347 52.9747ZM72.8759 44.3235C72.8759 46.4014 73.3 48.0129 74.1482 49.1579C75.0387 50.2606 76.2898 50.8119 77.9013 50.8119C79.5128 50.8119 81.1031 50.2181 82.6721 49.0307C84.2412 47.8433 85.5559 46.2106 86.6161 44.1326C86.9977 39.8494 87.8247 34.7817 89.0969 28.9294C84.8137 28.9294 81.0394 30.4773 77.774 33.5731C74.5086 36.6688 72.8759 40.2523 72.8759 44.3235ZM129.257 12.5812C129.257 14.1927 128.409 15.5921 126.712 16.7795C125.016 17.9246 123.087 18.4971 120.924 18.4971C118.761 18.4971 117.043 18.073 115.771 17.2248C114.541 16.3767 113.926 15.2317 113.926 13.7898C113.926 11.839 114.838 10.3123 116.662 9.20974C118.485 8.10714 120.415 7.55584 122.45 7.55584C124.486 7.55584 126.119 7.97992 127.348 8.82807C128.621 9.67623 129.257 10.9273 129.257 12.5812ZM116.853 62.3892C114.223 62.3892 112.315 61.7319 111.127 60.4172C109.94 59.1026 109.346 57.1094 109.346 54.4377C109.346 51.7236 110.703 44.4931 113.418 32.7461L109.855 27.4027C115.156 24.2221 119.333 22.6318 122.387 22.6318C124.125 22.6318 125.355 23.0135 126.076 23.7768C126.797 24.4978 127.158 25.6852 127.158 27.3391C127.158 27.9752 126.373 31.7071 124.804 38.5348C123.235 45.3624 122.45 50.2393 122.45 53.1655C122.45 56.0916 123.108 58.1272 124.422 59.2722C122.048 61.3502 119.524 62.3892 116.853 62.3892Z" fill="black"/>
<path d="M157.036 51.9569L154.809 45.5321C152.604 45.5321 150.378 45.1928 148.13 44.5143C147.664 47.2284 147.43 49.1792 147.43 50.3666C147.43 54.4801 148.067 57.5547 149.339 59.5903C146.794 61.4986 144.144 62.4528 141.387 62.4528C138.631 62.4528 136.659 61.6683 135.471 60.0992C134.284 58.4877 133.69 56.1128 133.69 52.9747C133.69 49.7941 135.026 40.8248 137.698 26.0669L134.326 19.2604C139.076 16.207 143.444 14.6804 147.43 14.6804C150.484 14.6804 152.837 15.3165 154.491 16.5887C157.672 15.3165 160.534 14.6804 163.079 14.6804C166.98 14.6804 170.076 15.995 172.366 18.6243C174.656 21.2536 175.801 24.413 175.801 28.1024C175.801 30.859 175.102 33.5307 173.702 36.1175C172.303 38.662 170.246 40.74 167.532 42.3515C168.974 46.465 170.585 50.0061 172.366 52.9747C174.19 55.9432 175.992 57.9152 177.773 58.8906C176.883 59.8235 175.504 60.6293 173.638 61.3078C171.815 62.0287 170.161 62.3892 168.677 62.3892C165.793 62.3892 163.482 61.6683 161.743 60.2264C160.004 58.7421 158.435 55.9856 157.036 51.9569ZM150.929 37.5806C154.322 37.5806 156.951 36.7112 158.817 34.9725C160.725 33.2338 161.679 31.3678 161.679 29.3747C161.679 27.3815 161.128 25.7912 160.026 24.6038C158.923 23.4164 157.354 22.8227 155.318 22.8227C154.216 22.8227 153.113 22.9711 152.01 23.2679C150.653 31.3678 149.805 36.1175 149.466 37.517C149.763 37.5594 150.251 37.5806 150.929 37.5806ZM210.75 27.4663C213.124 27.4663 215.16 28.4205 216.856 30.3289C218.595 32.2372 219.464 35.0149 219.464 38.662C219.464 42.2667 218.828 45.6169 217.556 48.7127C216.284 51.766 214.609 54.2681 212.531 56.2189C210.453 58.1696 208.099 59.6963 205.47 60.7989C202.84 61.8591 200.148 62.3892 197.391 62.3892C191.836 62.3892 187.446 60.8625 184.223 57.8092C181 54.7558 179.389 50.7058 179.389 45.6593C179.389 38.8316 181.573 33.2974 185.941 29.0566C190.351 24.7734 195.949 22.6318 202.734 22.6318C204.261 22.6318 205.788 22.8015 207.314 23.1407C207.781 24.5402 208.035 26.1305 208.078 27.9116C208.968 27.6148 209.859 27.4663 210.75 27.4663ZM202.925 36.3084C202.925 35.1209 203.201 33.7851 203.752 32.3008C204.346 30.8165 205.279 29.6291 206.551 28.7386C200.953 29.926 197.094 32.1948 194.974 35.545C193.15 38.4288 192.238 41.3973 192.238 44.4507C192.238 47.504 192.853 49.9637 194.083 51.8296C195.355 53.6532 196.967 54.5649 198.918 54.5649C203.243 54.5649 206.297 51.7448 208.078 46.1046C204.643 43.9842 202.925 40.7188 202.925 36.3084ZM226.197 48.7127C226.197 45.1504 227.575 35.9903 230.332 21.2324L226.77 16.1434C229.399 14.5743 231.604 13.4081 233.385 12.6448C235.209 11.8814 237.011 11.4998 238.792 11.4998C240.616 11.4998 241.952 11.8602 242.8 12.5812C243.648 13.3021 244.072 14.4471 244.072 16.0162C244.072 18.7303 243.245 24.0525 241.591 31.9828L242.227 32.3008C245.281 26.2365 249.734 23.2043 255.586 23.2043C258.894 23.2043 261.481 24.625 263.347 27.4663C265.212 30.2652 266.145 33.6791 266.145 37.7078C266.145 41.6942 265.34 45.2988 263.728 48.5218C262.159 51.7024 260.102 54.2893 257.558 56.2825C255.056 58.2332 252.32 59.7387 249.352 60.7989C246.383 61.8591 243.436 62.3892 240.51 62.3892C235.718 62.3892 232.134 61.2866 229.759 59.0814C227.385 56.8762 226.197 53.4199 226.197 48.7127ZM238.792 55.0102C243.5 55.0102 247.316 53.3987 250.242 50.1757C253.211 46.9527 254.695 43.3481 254.695 39.3617C254.695 37.5382 254.186 35.8843 253.169 34.4C252.193 32.9157 250.9 32.1736 249.288 32.1736C247.677 32.1736 246.171 32.8309 244.772 34.1456C243.415 35.4602 242.355 37.0293 241.591 38.8528C240.87 40.6764 240.277 42.7332 239.81 45.0232C239.132 48.6278 238.792 51.9569 238.792 55.0102ZM293.07 12.5812C293.07 14.1927 292.221 15.5921 290.525 16.7795C288.829 17.9246 286.899 18.4971 284.736 18.4971C282.574 18.4971 280.856 18.073 279.584 17.2248C278.354 16.3767 277.739 15.2317 277.739 13.7898C277.739 11.839 278.651 10.3123 280.474 9.20974C282.298 8.10714 284.228 7.55584 286.263 7.55584C288.299 7.55584 289.931 7.97992 291.161 8.82807C292.433 9.67623 293.07 10.9273 293.07 12.5812ZM280.665 62.3892C278.036 62.3892 276.128 61.7319 274.94 60.4172C273.753 59.1026 273.159 57.1094 273.159 54.4377C273.159 51.7236 274.516 44.4931 277.23 32.7461L273.668 27.4027C278.969 24.2221 283.146 22.6318 286.2 22.6318C287.938 22.6318 289.168 23.0135 289.889 23.7768C290.61 24.4978 290.97 25.6852 290.97 27.3391C290.97 27.9752 290.186 31.7071 288.617 38.5348C287.048 45.3624 286.263 50.2393 286.263 53.1655C286.263 56.0916 286.92 58.1272 288.235 59.2722C285.86 61.3502 283.337 62.3892 280.665 62.3892Z" fill="#AB795E"/>
<path d="M39.7903 50.8119L39.2042 51.1208L39.5467 51.7707L40.1579 51.3632L39.7903 50.8119ZM41.317 49.7941L41.6846 50.3454L42.1791 50.0157L41.9049 49.4884L41.317 49.7941ZM40.8081 19.8329L40.2694 19.4471L40.2662 19.4516L40.8081 19.8329ZM57.0928 15.889L57.7451 16.0055L57.8321 15.5178L57.3891 15.2963L57.0928 15.889ZM54.8027 28.2933L55.454 28.4153L55.4541 28.4151L54.8027 28.2933ZM53.276 59.145L53.6407 59.6983L54.2023 59.3281L53.8238 58.7721L53.276 59.145ZM48.1235 61.6895L48.3123 62.3246L48.1235 61.6895ZM35.2739 60.7989L34.9627 61.3839L34.9678 61.3866L35.2739 60.7989ZM30.3122 56.6005L29.773 56.9857L29.7782 56.993L29.7836 57.0002L30.3122 56.6005ZM27.068 50.0485L27.6945 49.8328L27.6942 49.832L27.068 50.0485ZM24.2055 32.7461L24.8673 32.714L24.8367 32.0835H24.2055V32.7461ZM23.1877 32.7461V32.0835H22.6556L22.5407 32.603L23.1877 32.7461ZM22.1699 59.5903L22.5675 60.1204L23.0544 59.7552L22.7318 59.2391L22.1699 59.5903ZM8.30251 60.0992L7.76902 60.4923L7.77413 60.499L8.30251 60.0992ZM10.5289 26.0669L11.181 26.1849L11.22 25.9692L11.1227 25.7728L10.5289 26.0669ZM7.1575 19.2604L6.79918 18.703L6.30069 19.0235L6.56373 19.5545L7.1575 19.2604ZM28.3402 16.6523L27.9643 17.1981L27.9727 17.2037L28.3402 16.6523ZM34.0017 30.2652L33.3438 30.345L33.3453 30.3561L34.0017 30.2652ZM35.91 40.2523L35.264 40.3998L35.2656 40.4064L35.91 40.2523ZM40.1579 51.3632L41.6846 50.3454L40.9495 49.2427L39.4228 50.2605L40.1579 51.3632ZM41.9049 49.4884C39.2003 44.2872 37.8449 38.5831 37.8449 32.3644H36.5196C36.5196 38.7833 37.9207 44.6989 40.7291 50.0998L41.9049 49.4884ZM37.8449 32.3644C37.8449 27.5576 39.0241 23.5195 41.35 20.2142L40.2662 19.4516C37.7576 23.0164 36.5196 27.3326 36.5196 32.3644H37.8449ZM41.3469 20.2187C43.6744 16.9682 46.9242 15.343 51.1769 15.343V14.0177C46.5239 14.0177 42.8612 15.8276 40.2694 19.4471L41.3469 20.2187ZM51.1769 15.343C53.4357 15.343 55.2999 15.7334 56.7964 16.4816L57.3891 15.2963C55.6626 14.4331 53.5829 14.0177 51.1769 14.0177V15.343ZM56.4405 15.7725C56.0169 18.1444 55.254 22.2767 54.1514 28.1714L55.4541 28.4151C56.5567 22.5205 57.3204 18.3833 57.7451 16.0055L56.4405 15.7725ZM54.1514 28.1713C52.9637 34.5132 52.072 39.5072 51.4771 43.1512C50.8865 46.7682 50.5778 49.1133 50.5778 50.1121H51.9031C51.9031 49.245 52.1881 47.0207 52.785 43.3647C53.3775 39.7357 54.267 34.7533 55.454 28.4153L54.1514 28.1713ZM50.5778 50.1121C50.5778 54.1936 51.2613 57.3632 52.7283 59.5179L53.8238 58.7721C52.5767 56.9404 51.9031 54.0881 51.9031 50.1121H50.5778ZM52.9114 58.5917C51.0814 59.7979 49.4234 60.6117 47.9347 61.0543L48.3123 62.3246C49.9618 61.8342 51.7388 60.9518 53.6407 59.6983L52.9114 58.5917ZM47.9347 61.0543C46.4502 61.4957 44.4849 61.7266 42.0168 61.7266V63.0518C44.5528 63.0518 46.6586 62.8163 48.3123 62.3246L47.9347 61.0543ZM42.0168 61.7266C39.6558 61.7266 37.5143 61.2187 35.58 60.2112L34.9678 61.3866C37.1046 62.4995 39.4584 63.0518 42.0168 63.0518V61.7266ZM35.5851 60.2139C33.6739 59.1973 32.0952 57.86 30.8407 56.2009L29.7836 57.0002C31.1585 58.8185 32.8876 60.2801 34.9627 61.3839L35.5851 60.2139ZM30.8514 56.2154C29.6242 54.4973 28.5693 52.3737 27.6945 49.8328L26.4415 50.2642C27.3479 52.8971 28.4557 55.1415 29.773 56.9857L30.8514 56.2154ZM27.6942 49.832C26.1528 45.3742 25.2048 39.6745 24.8673 32.714L23.5436 32.7782C23.8847 39.8123 24.845 45.6475 26.4418 50.2651L27.6942 49.832ZM24.2055 32.0835H23.1877V33.4087H24.2055V32.0835ZM22.5407 32.603C20.5907 41.4201 19.5989 47.6559 19.5989 51.2571H20.9242C20.9242 47.8187 21.8831 41.7138 23.8347 32.8892L22.5407 32.603ZM19.5989 51.2571C19.5989 54.8467 20.246 57.7624 21.608 59.9415L22.7318 59.2391C21.5493 57.347 20.9242 54.7073 20.9242 51.2571H19.5989ZM21.7723 59.0602C19.3242 60.8963 16.8102 61.7902 14.2184 61.7902V63.1154C17.1397 63.1154 19.9267 62.101 22.5675 60.1204L21.7723 59.0602ZM14.2184 61.7902C11.581 61.7902 9.8479 61.0432 8.83089 59.6993L7.77413 60.499C9.13197 62.2933 11.3428 63.1154 14.2184 63.1154V61.7902ZM8.83596 59.7061C7.76802 58.2568 7.18401 56.0462 7.18401 52.9747H5.85876C5.85876 56.1794 6.46217 58.7186 7.76907 60.4922L8.83596 59.7061ZM7.18401 52.9747C7.18401 51.441 7.50979 48.4509 8.17866 43.9599C8.84513 39.485 9.84565 33.5608 11.181 26.1849L9.8769 25.9488C8.54051 33.3308 7.53726 39.2702 6.86788 43.7647C6.2009 48.2429 5.85876 51.3277 5.85876 52.9747H7.18401ZM11.1227 25.7728L7.75128 18.9663L6.56373 19.5545L9.93515 26.361L11.1227 25.7728ZM7.51582 19.8178C12.2097 16.8003 16.3245 15.343 19.8799 15.343V14.0177C15.9714 14.0177 11.6047 15.6138 6.79918 18.703L7.51582 19.8178ZM19.8799 15.343C23.5525 15.343 26.2154 15.9932 27.9643 17.198L28.7161 16.1066C26.6484 14.6822 23.671 14.0177 19.8799 14.0177V15.343ZM27.9727 17.2037C29.7359 18.3791 30.9887 20.1298 31.714 22.5071L32.9816 22.1204C32.1802 19.4936 30.7613 17.47 28.7078 16.101L27.9727 17.2037ZM31.714 22.5071C32.4652 24.9694 33.0089 27.5816 33.3439 30.345L34.6595 30.1855C34.3159 27.351 33.7571 24.6623 32.9816 22.1204L31.714 22.5071ZM33.3453 30.3561C33.7305 33.1379 34.3709 36.4869 35.264 40.3998L36.556 40.1048C35.6681 36.2147 35.0362 32.9057 34.658 30.1744L33.3453 30.3561ZM35.2656 40.4064C36.2098 44.3549 37.5213 47.9277 39.2042 51.1208L40.3765 50.5029C38.7516 47.4196 37.4762 43.9528 36.5545 40.0982L35.2656 40.4064ZM85.5347 52.9747H86.1973V52.5651L85.831 52.382L85.5347 52.9747ZM84.8986 52.6566L85.1949 52.0639L84.5366 51.7348L84.2781 52.4239L84.8986 52.6566ZM79.9368 59.8447L80.3508 60.3622L80.352 60.3612L79.9368 59.8447ZM64.1611 58.318L63.6429 58.731L64.1611 58.318ZM67.9778 29.7564L67.5093 29.2878L67.5072 29.2899L67.9778 29.7564ZM90.6872 23.1407L91.3351 23.0019L91.2461 22.5861L90.831 22.4939L90.6872 23.1407ZM91.1325 26.2577L90.4706 26.2892L90.5251 27.4331L91.4897 26.8158L91.1325 26.2577ZM100.293 39.9978L99.6464 39.8512L99.6454 39.8556L100.293 39.9978ZM100.293 59.2722L100.729 59.7709L101.311 59.2616L100.718 58.7645L100.293 59.2722ZM87.2522 60.0992L86.722 60.4968L86.7292 60.506L87.2522 60.0992ZM74.1482 49.1579L73.6157 49.5524L73.624 49.5635L73.6327 49.5743L74.1482 49.1579ZM82.6721 49.0307L83.072 49.5591L83.072 49.5591L82.6721 49.0307ZM86.6161 44.1326L87.2063 44.4338L87.2647 44.3194L87.2761 44.1914L86.6161 44.1326ZM89.0969 28.9294L89.7444 29.0702L89.9191 28.2668H89.0969V28.9294ZM77.774 33.5731L77.3182 33.0922L77.3182 33.0922L77.774 33.5731ZM85.831 52.382L85.1949 52.0639L84.6022 53.2493L85.2383 53.5673L85.831 52.382ZM84.2781 52.4239C83.1675 55.3857 81.5767 57.6762 79.5217 59.3283L80.352 60.3612C82.6226 58.5358 84.3396 56.0342 85.519 52.8893L84.2781 52.4239ZM79.5229 59.3273C77.5158 60.933 75.2859 61.7266 72.8123 61.7266V63.0518C75.5973 63.0518 78.1171 62.1491 80.3508 60.3621L79.5229 59.3273ZM72.8123 61.7266C69.4003 61.7266 66.7109 60.4545 64.6793 57.9051L63.6429 58.731C65.937 61.6098 69.015 63.0518 72.8123 63.0518V61.7266ZM64.6793 57.9051C62.6354 55.3401 61.5795 51.8745 61.5795 47.4404H60.2543C60.2543 52.0816 61.3613 55.8678 63.6429 58.731L64.6793 57.9051ZM61.5795 47.4404C61.5795 40.5652 63.8712 34.8413 68.4485 30.2228L67.5072 29.2899C62.6699 34.1708 60.2543 40.2362 60.2543 47.4404H61.5795ZM68.4464 30.2249C73.0653 25.606 78.7885 23.2945 85.6619 23.2945V21.9692C78.4559 21.9692 72.3897 24.4074 67.5093 29.2878L68.4464 30.2249ZM85.6619 23.2945C87.4449 23.2945 89.071 23.4604 90.5435 23.7876L90.831 22.4939C89.2501 22.1426 87.526 21.9692 85.6619 21.9692V23.2945ZM90.0393 23.2796C90.2887 24.4434 90.4304 25.445 90.4706 26.2892L91.7944 26.2262C91.7498 25.2893 91.5947 24.2129 91.3351 23.0019L90.0393 23.2796ZM91.4897 26.8158C93.5167 25.5185 95.5783 24.8847 97.6845 24.8847V23.5595C95.2955 23.5595 92.9891 24.2828 90.7753 25.6996L91.4897 26.8158ZM97.6845 24.8847C99.1162 24.8847 100.072 25.2697 100.681 25.9282C101.298 26.5965 101.666 27.6621 101.666 29.2475H102.991C102.991 27.4826 102.584 26.0355 101.654 25.0288C100.715 24.0121 99.3486 23.5595 97.6845 23.5595V24.8847ZM101.666 29.2475C101.666 29.7682 101.51 30.8991 101.168 32.7023C100.831 34.4828 100.324 36.8648 99.6464 39.8512L100.939 40.1445C101.618 37.1514 102.129 34.7519 102.47 32.9489C102.807 31.1687 102.991 29.9141 102.991 29.2475H101.666ZM99.6454 39.8556C98.3293 45.8418 97.658 50.3327 97.658 53.2927H98.9833C98.9833 50.4853 99.6266 46.1129 100.94 40.1401L99.6454 39.8556ZM97.658 53.2927C97.658 56.2432 98.3253 58.4871 99.8668 59.7799L100.718 58.7645C99.6306 57.8522 98.9833 56.1097 98.9833 53.2927H97.658ZM99.8563 58.7735C97.5745 60.7701 95.2431 61.7266 92.85 61.7266V63.0518C95.6308 63.0518 98.261 61.9303 100.729 59.7709L99.8563 58.7735ZM92.85 61.7266C90.4402 61.7266 88.7997 61.0095 87.7752 59.6924L86.7292 60.506C88.0795 62.2422 90.1709 63.0518 92.85 63.0518V61.7266ZM87.7823 59.7016C86.7648 58.3449 86.1973 56.1437 86.1973 52.9747H84.8721C84.8721 56.2516 85.4496 58.8001 86.7221 60.4967L87.7823 59.7016ZM72.2133 44.3235C72.2133 46.481 72.6522 48.2516 73.6157 49.5524L74.6806 48.7635C73.9478 47.7743 73.5386 46.3219 73.5386 44.3235H72.2133ZM73.6327 49.5743C74.6673 50.8552 76.1205 51.4745 77.9013 51.4745V50.1492C76.459 50.1492 75.4102 49.6659 74.6636 48.7416L73.6327 49.5743ZM77.9013 51.4745C79.6867 51.4745 81.4139 50.8139 83.072 49.5591L82.2723 48.5023C80.7923 49.6224 79.3388 50.1492 77.9013 50.1492V51.4745ZM83.072 49.5591C84.7344 48.3011 86.109 46.5845 87.2063 44.4338L86.0258 43.8315C85.0028 45.8367 83.7481 47.3855 82.2723 48.5023L83.072 49.5591ZM87.2761 44.1914C87.6546 39.9441 88.476 34.905 89.7444 29.0702L88.4494 28.7886C87.1734 34.6583 86.3409 39.7547 85.9561 44.0738L87.2761 44.1914ZM89.0969 28.2668C84.6349 28.2668 80.6998 29.8862 77.3182 33.0922L78.2299 34.0539C81.3791 31.0683 84.9926 29.592 89.0969 29.592V28.2668ZM77.3182 33.0922C73.9361 36.2985 72.2133 40.0503 72.2133 44.3235H73.5386C73.5386 40.4543 75.0811 37.0391 78.2299 34.0539L77.3182 33.0922ZM126.712 16.7795L127.083 17.3288L127.092 17.3224L126.712 16.7795ZM115.771 17.2248L115.395 17.7704L115.404 17.7762L115.771 17.2248ZM116.662 9.20974L116.319 8.64272L116.319 8.64272L116.662 9.20974ZM127.348 8.82807L126.972 9.37362L126.981 9.37941L127.348 8.82807ZM111.127 60.4172L110.636 60.8614L110.636 60.8614L111.127 60.4172ZM113.418 32.7461L114.063 32.8953L114.128 32.6166L113.969 32.3785L113.418 32.7461ZM109.855 27.4027L109.514 26.8345L108.918 27.1921L109.304 27.7703L109.855 27.4027ZM126.076 23.7768L125.595 24.2318L125.601 24.2387L125.608 24.2454L126.076 23.7768ZM124.422 59.2722L124.859 59.7709L125.43 59.2711L124.858 58.7726L124.422 59.2722ZM128.594 12.5812C128.594 13.9159 127.908 15.134 126.332 16.2367L127.092 17.3224C128.91 16.0503 129.919 14.4694 129.919 12.5812H128.594ZM126.342 16.2303C124.761 17.2971 122.962 17.8344 120.924 17.8344V19.1597C123.211 19.1597 125.271 18.552 127.083 17.3288L126.342 16.2303ZM120.924 17.8344C118.84 17.8344 117.266 17.4248 116.139 16.6735L115.404 17.7762C116.821 18.7212 118.682 19.1597 120.924 19.1597V17.8344ZM116.147 16.6793C115.089 15.9496 114.589 15.0046 114.589 13.7898H113.264C113.264 15.4587 113.994 16.8038 115.395 17.7703L116.147 16.6793ZM114.589 13.7898C114.589 12.0957 115.357 10.7727 117.005 9.77677L116.319 8.64272C114.319 9.85198 113.264 11.5824 113.264 13.7898H114.589ZM117.005 9.77677C118.73 8.73364 120.541 8.21846 122.45 8.21846V6.89322C120.288 6.89322 118.241 7.48064 116.319 8.64272L117.005 9.77677ZM122.45 8.21846C124.399 8.21846 125.887 8.62484 126.972 9.37355L127.725 8.28259C126.351 7.335 124.573 6.89322 122.45 6.89322V8.21846ZM126.981 9.37941C128.052 10.0932 128.594 11.1274 128.594 12.5812H129.919C129.919 10.7272 129.19 9.25923 127.716 8.27674L126.981 9.37941ZM116.853 61.7266C114.319 61.7266 112.631 61.0928 111.619 59.9731L110.636 60.8614C111.999 62.371 114.127 63.0518 116.853 63.0518V61.7266ZM111.619 59.9731C110.586 58.8293 110.009 57.0263 110.009 54.4377H108.684C108.684 57.1925 109.294 59.3759 110.636 60.8614L111.619 59.9731ZM110.009 54.4377C110.009 53.1509 110.336 50.7224 111.015 47.1015C111.692 43.4991 112.707 38.7647 114.063 32.8953L112.772 32.5969C111.414 38.4745 110.394 43.2289 109.713 46.857C109.035 50.4666 108.684 53.0104 108.684 54.4377H110.009ZM113.969 32.3785L110.407 27.0352L109.304 27.7703L112.866 33.1137L113.969 32.3785ZM110.196 27.9709C115.48 24.8006 119.525 23.2945 122.387 23.2945V21.9692C119.142 21.9692 114.832 23.6437 109.514 26.8345L110.196 27.9709ZM122.387 23.2945C124.058 23.2945 125.06 23.6659 125.595 24.2318L126.558 23.3219C125.651 22.3611 124.193 21.9692 122.387 21.9692V23.2945ZM125.608 24.2454C126.146 24.7837 126.495 25.7563 126.495 27.3391H127.82C127.82 25.6141 127.448 24.2118 126.545 23.3083L125.608 24.2454ZM126.495 27.3391C126.495 27.4272 126.459 27.7172 126.358 28.2795C126.262 28.8162 126.116 29.5484 125.921 30.4788C125.53 32.3387 124.942 34.9738 124.158 38.3864L125.45 38.6832C126.235 35.2681 126.824 32.6234 127.218 30.7514C127.414 29.8159 127.563 29.0691 127.663 28.5138C127.758 27.9841 127.82 27.569 127.82 27.3391H126.495ZM124.158 38.3864C122.589 45.2141 121.788 50.1565 121.788 53.1655H123.113C123.113 50.3222 123.881 45.5108 125.45 38.6832L124.158 38.3864ZM121.788 53.1655C121.788 56.158 122.455 58.4372 123.987 59.7719L124.858 58.7726C123.761 57.8172 123.113 56.0252 123.113 53.1655H121.788ZM123.986 58.7735C121.709 60.766 119.336 61.7266 116.853 61.7266V63.0518C119.713 63.0518 122.386 61.9344 124.859 59.7709L123.986 58.7735ZM157.036 51.9569L156.41 52.1738L156.41 52.1743L157.036 51.9569ZM154.809 45.5321L155.435 45.3151L155.281 44.8695H154.809V45.5321ZM148.13 44.5143L148.322 43.8799L147.604 43.6633L147.477 44.402L148.13 44.5143ZM149.339 59.5903L149.736 60.1204L150.223 59.7552L149.901 59.2391L149.339 59.5903ZM135.471 60.0992L134.938 60.4923L134.943 60.499L135.471 60.0992ZM137.698 26.0669L138.35 26.1849L138.389 25.9692L138.292 25.7728L137.698 26.0669ZM134.326 19.2604L133.968 18.703L133.47 19.0235L133.733 19.5545L134.326 19.2604ZM154.491 16.5887L154.087 17.1139L154.387 17.3442L154.737 17.2039L154.491 16.5887ZM172.366 18.6243L172.866 18.1891L172.866 18.1891L172.366 18.6243ZM173.702 36.1175L174.283 36.4369L174.285 36.4328L173.702 36.1175ZM167.532 42.3515L167.193 41.7817L166.727 42.0587L166.906 42.5707L167.532 42.3515ZM172.366 52.9747L171.798 53.3156L171.802 53.3215L172.366 52.9747ZM177.773 58.8906L178.253 59.3481L178.848 58.7239L178.092 58.3094L177.773 58.8906ZM173.638 61.3078L173.412 60.6851L173.403 60.6882L173.395 60.6916L173.638 61.3078ZM161.743 60.2264L161.313 60.7304L161.32 60.7365L161.743 60.2264ZM158.817 34.9725L158.371 34.4827L158.365 34.4877L158.817 34.9725ZM160.026 24.6038L160.511 24.1529L160.511 24.1529L160.026 24.6038ZM152.01 23.2679L151.838 22.6281L151.427 22.7387L151.357 23.1585L152.01 23.2679ZM149.466 37.517L148.822 37.3609L148.65 38.0698L149.372 38.173L149.466 37.517ZM157.662 51.7399L155.435 45.3151L154.183 45.749L156.41 52.1738L157.662 51.7399ZM154.809 44.8695C152.673 44.8695 150.511 44.5409 148.322 43.8799L147.939 45.1486C150.244 45.8447 152.535 46.1947 154.809 46.1947V44.8695ZM147.477 44.402C147.01 47.1177 146.768 49.1175 146.768 50.3666H148.093C148.093 49.2408 148.317 47.3391 148.783 44.6265L147.477 44.402ZM146.768 50.3666C146.768 54.5261 147.407 57.7497 148.777 59.9415L149.901 59.2391C148.726 57.3597 148.093 54.4341 148.093 50.3666H146.768ZM148.941 59.0602C146.493 60.8963 143.979 61.7902 141.387 61.7902V63.1154C144.309 63.1154 147.096 62.101 149.736 60.1204L148.941 59.0602ZM141.387 61.7902C138.75 61.7902 137.017 61.0432 136 59.6993L134.943 60.499C136.301 62.2933 138.512 63.1154 141.387 63.1154V61.7902ZM136.005 59.7061C134.937 58.2568 134.353 56.0462 134.353 52.9747H133.028C133.028 56.1794 133.631 58.7186 134.938 60.4922L136.005 59.7061ZM134.353 52.9747C134.353 51.441 134.679 48.4509 135.348 43.9599C136.014 39.485 137.015 33.5608 138.35 26.1849L137.046 25.9488C135.709 33.3308 134.706 39.2702 134.037 43.7647C133.37 48.2429 133.028 51.3277 133.028 52.9747H134.353ZM138.292 25.7728L134.92 18.9663L133.733 19.5545L137.104 26.361L138.292 25.7728ZM134.685 19.8178C139.37 16.8058 143.614 15.343 147.43 15.343V14.0177C143.274 14.0177 138.782 15.6083 133.968 18.703L134.685 19.8178ZM147.43 15.343C150.403 15.343 152.592 15.9637 154.087 17.1139L154.895 16.0635C153.083 14.6693 150.565 14.0177 147.43 14.0177V15.343ZM154.737 17.2039C157.865 15.9528 160.642 15.343 163.079 15.343V14.0177C160.426 14.0177 157.479 14.6801 154.245 15.9735L154.737 17.2039ZM163.079 15.343C166.814 15.343 169.718 16.5929 171.867 19.0595L172.866 18.1891C170.434 15.3971 167.147 14.0177 163.079 14.0177V15.343ZM171.867 19.0595C174.045 21.5607 175.139 24.5628 175.139 28.1024H176.464C176.464 24.2631 175.267 20.9464 172.866 18.1891L171.867 19.0595ZM175.139 28.1024C175.139 30.7415 174.47 33.3055 173.119 35.8022L174.285 36.4328C175.733 33.7558 176.464 30.9764 176.464 28.1024H175.139ZM173.122 35.7982C171.784 38.2302 169.815 40.2252 167.193 41.7817L167.87 42.9212C170.677 41.2548 172.821 39.0939 174.283 36.4369L173.122 35.7982ZM166.906 42.5707C168.36 46.7163 169.989 50.3001 171.798 53.3156L172.934 52.6337C171.181 49.7121 169.588 46.2138 168.157 42.1323L166.906 42.5707ZM171.802 53.3215C173.648 56.3267 175.524 58.4144 177.455 59.4717L178.092 58.3094C176.46 57.416 174.732 55.5597 172.931 52.6278L171.802 53.3215ZM177.294 58.433C176.502 59.2631 175.229 60.0244 173.412 60.6851L173.865 61.9305C175.78 61.2342 177.264 60.384 178.253 59.3481L177.294 58.433ZM173.395 60.6916C171.625 61.3912 170.056 61.7266 168.677 61.7266V63.0518C170.267 63.0518 172.005 62.6663 173.882 61.924L173.395 60.6916ZM168.677 61.7266C165.904 61.7266 163.756 61.0349 162.166 59.7163L161.32 60.7365C163.207 62.3016 165.682 63.0518 168.677 63.0518V61.7266ZM162.173 59.7224C160.572 58.3558 159.051 55.7383 157.662 51.7394L156.41 52.1743C157.82 56.233 159.436 59.1284 161.313 60.7304L162.173 59.7224ZM150.929 38.2432C154.433 38.2432 157.244 37.3438 159.269 35.4573L158.365 34.4877C156.658 36.0787 154.211 36.918 150.929 36.918V38.2432ZM159.263 35.4623C161.266 33.6373 162.342 31.6056 162.342 29.3747H161.017C161.017 31.1301 160.184 32.8303 158.371 34.4827L159.263 35.4623ZM162.342 29.3747C162.342 27.2547 161.752 25.4896 160.511 24.1529L159.54 25.0547C160.504 26.0928 161.017 27.5084 161.017 29.3747H162.342ZM160.511 24.1529C159.253 22.7975 157.488 22.16 155.318 22.16V23.4853C157.22 23.4853 158.593 24.0352 159.54 25.0547L160.511 24.1529ZM155.318 22.16C154.155 22.16 152.995 22.3167 151.838 22.6281L152.183 23.9078C153.231 23.6255 154.276 23.4853 155.318 23.4853V22.16ZM151.357 23.1585C149.998 31.2724 149.154 35.9909 148.822 37.3609L150.11 37.6731C150.456 36.2442 151.309 31.4633 152.664 23.3774L151.357 23.1585ZM149.372 38.173C149.72 38.2226 150.248 38.2432 150.929 38.2432V36.918C150.253 36.918 149.806 36.8962 149.56 36.861L149.372 38.173ZM216.856 30.3289L216.361 30.7691L216.366 30.7751L216.856 30.3289ZM217.556 48.7127L218.168 48.9675L218.169 48.9645L217.556 48.7127ZM212.531 56.2189L212.984 56.702L212.984 56.702L212.531 56.2189ZM205.47 60.7989L205.718 61.4135L205.726 61.41L205.47 60.7989ZM184.223 57.8092L184.679 57.3281L184.223 57.8092ZM185.941 29.0566L186.402 29.532L186.403 29.532L185.941 29.0566ZM207.314 23.1407L207.943 22.9312L207.824 22.5753L207.458 22.4939L207.314 23.1407ZM208.078 27.9116L207.415 27.9274L207.437 28.8238L208.287 28.5402L208.078 27.9116ZM203.752 32.3008L203.137 32.0547L203.134 32.0624L203.131 32.0701L203.752 32.3008ZM206.551 28.7386L206.931 29.2814L206.414 28.0904L206.551 28.7386ZM194.974 35.545L194.414 35.1907L194.414 35.1909L194.974 35.545ZM194.083 51.8296L193.53 52.1943L193.535 52.2016L193.54 52.2088L194.083 51.8296ZM208.078 46.1046L208.71 46.3041L208.865 45.8119L208.426 45.5407L208.078 46.1046ZM210.75 28.1289C212.92 28.1289 214.78 28.9902 216.361 30.7691L217.351 29.8886C215.54 27.8508 213.329 26.8037 210.75 26.8037V28.1289ZM216.366 30.7751C217.955 32.5191 218.802 35.112 218.802 38.662H220.127C220.127 34.9178 219.235 31.9553 217.346 29.8826L216.366 30.7751ZM218.802 38.662C218.802 42.187 218.18 45.4509 216.943 48.4608L218.169 48.9645C219.476 45.7829 220.127 42.3464 220.127 38.662H218.802ZM216.944 48.4578C215.702 51.4386 214.077 53.8585 212.077 55.7358L212.984 56.702C215.14 54.6777 216.865 52.0935 218.168 48.9675L216.944 48.4578ZM212.077 55.7358C210.057 57.6324 207.77 59.1158 205.213 60.1878L205.726 61.41C208.428 60.2768 210.849 58.7068 212.984 56.702L212.077 55.7358ZM205.222 60.1844C202.669 61.2137 200.06 61.7266 197.391 61.7266V63.0518C200.235 63.0518 203.012 62.5045 205.718 61.4134L205.222 60.1844ZM197.391 61.7266C191.961 61.7266 187.75 60.2374 184.679 57.3281L183.768 58.2902C187.143 61.4876 191.711 63.0518 197.391 63.0518V61.7266ZM184.679 57.3281C181.607 54.4175 180.052 50.5512 180.052 45.6593H178.726C178.726 50.8605 180.394 55.0941 183.768 58.2902L184.679 57.3281ZM180.052 45.6593C180.052 38.9869 182.179 33.6323 186.402 29.532L185.479 28.5812C180.967 32.9625 178.726 38.6764 178.726 45.6593H180.052ZM186.403 29.532C190.676 25.3818 196.102 23.2945 202.734 23.2945V21.9692C195.796 21.9692 190.027 24.165 185.479 28.5813L186.403 29.532ZM202.734 23.2945C204.212 23.2945 205.69 23.4585 207.171 23.7876L207.458 22.4939C205.885 22.1444 204.311 21.9692 202.734 21.9692V23.2945ZM206.686 23.3503C207.128 24.6758 207.374 26.199 207.415 27.9274L208.74 27.8958C208.697 26.062 208.434 24.4046 207.943 22.9312L206.686 23.3503ZM208.287 28.5402C209.114 28.2647 209.934 28.1289 210.75 28.1289V26.8037C209.784 26.8037 208.823 26.9648 207.868 27.283L208.287 28.5402ZM203.588 36.3084C203.588 35.2211 203.841 33.9651 204.373 32.5315L203.131 32.0701C202.561 33.6051 202.263 35.0208 202.263 36.3084H203.588ZM204.367 32.5469C204.915 31.1786 205.768 30.0958 206.931 29.2814L206.171 28.1957C204.79 29.1625 203.777 30.4545 203.137 32.0547L204.367 32.5469ZM206.414 28.0904C200.719 29.2983 196.665 31.6334 194.414 35.1907L195.534 35.8994C197.523 32.7562 201.187 30.5537 206.689 29.3868L206.414 28.0904ZM194.414 35.1909C192.531 38.1677 191.576 41.2576 191.576 44.4507H192.901C192.901 41.537 193.769 38.6898 195.534 35.8992L194.414 35.1909ZM191.576 44.4507C191.576 47.5876 192.207 50.1872 193.53 52.1943L194.636 51.465C193.5 49.7402 192.901 47.4205 192.901 44.4507H191.576ZM193.54 52.2088C194.916 54.1812 196.718 55.2276 198.918 55.2276V53.9023C197.216 53.9023 195.795 53.1252 194.627 51.4505L193.54 52.2088ZM198.918 55.2276C201.24 55.2276 203.247 54.4647 204.902 52.9366C206.541 51.4221 207.798 49.1903 208.71 46.3041L207.446 45.905C206.576 48.6591 205.416 50.6575 204.002 51.9631C202.603 53.2551 200.921 53.9023 198.918 53.9023V55.2276ZM208.426 45.5407C205.207 43.5539 203.588 40.5145 203.588 36.3084H202.263C202.263 40.9231 204.078 44.4145 207.73 46.6684L208.426 45.5407ZM230.332 21.2324L230.983 21.354L231.034 21.0804L230.875 20.8524L230.332 21.2324ZM226.77 16.1434L226.43 15.5744L225.818 15.9396L226.227 16.5234L226.77 16.1434ZM233.385 12.6448L233.129 12.0335L233.124 12.0357L233.385 12.6448ZM242.8 12.5812L242.371 13.086L242.371 13.086L242.8 12.5812ZM241.591 31.9828L240.943 31.8475L240.838 32.3472L241.295 32.5754L241.591 31.9828ZM242.227 32.3008L241.931 32.8935L242.522 33.189L242.819 32.5988L242.227 32.3008ZM263.347 27.4663L262.793 27.8301L262.795 27.8339L263.347 27.4663ZM263.728 48.5218L263.136 48.2255L263.134 48.2287L263.728 48.5218ZM257.558 56.2825L257.965 56.805L257.966 56.8041L257.558 56.2825ZM229.759 59.0814L230.21 58.5958L230.21 58.5958L229.759 59.0814ZM238.792 55.0102H238.13V55.6729H238.792V55.0102ZM250.242 50.1757L249.755 49.7268L249.752 49.7303L250.242 50.1757ZM253.169 34.4L252.615 34.764L252.622 34.7747L253.169 34.4ZM244.772 34.1456L244.318 33.6626L244.311 33.6696L244.772 34.1456ZM241.591 38.8528L240.98 38.5969L240.975 38.6092L241.591 38.8528ZM239.81 45.0232L239.161 44.8909L239.159 44.9006L239.81 45.0232ZM226.86 48.7127C226.86 45.2262 228.222 36.1369 230.983 21.354L229.681 21.1107C226.929 35.8438 225.535 45.0746 225.535 48.7127H226.86ZM230.875 20.8524L227.313 15.7634L226.227 16.5234L229.789 21.6124L230.875 20.8524ZM227.109 16.7124C229.726 15.1509 231.903 14.0009 233.646 13.2538L233.124 12.0357C231.305 12.8153 229.072 13.9978 226.43 15.5744L227.109 16.7124ZM233.641 13.256C235.393 12.5229 237.108 12.1624 238.792 12.1624V10.8371C236.914 10.8371 235.025 11.24 233.13 12.0336L233.641 13.256ZM238.792 12.1624C240.552 12.1624 241.698 12.5144 242.371 13.086L243.229 12.0763C242.205 11.206 240.68 10.8371 238.792 10.8371V12.1624ZM242.371 13.086C243.018 13.6359 243.41 14.5588 243.41 16.0162H244.735C244.735 14.3355 244.279 12.9683 243.229 12.0763L242.371 13.086ZM243.41 16.0162C243.41 18.6506 242.599 23.906 240.943 31.8475L242.24 32.118C243.892 24.199 244.735 18.81 244.735 16.0162H243.41ZM241.295 32.5754L241.931 32.8935L242.524 31.7082L241.888 31.3901L241.295 32.5754ZM242.819 32.5988C244.308 29.6414 246.118 27.4645 248.23 26.0262C250.337 24.5915 252.781 23.867 255.586 23.867V22.5417C252.539 22.5417 249.83 23.3333 247.484 24.9308C245.144 26.5246 243.2 28.8959 241.636 32.0028L242.819 32.5988ZM255.586 23.867C258.663 23.867 261.045 25.1691 262.793 27.8301L263.9 27.1026C261.916 24.0809 259.124 22.5417 255.586 22.5417V23.867ZM262.795 27.8339C264.575 30.504 265.483 33.7836 265.483 37.7078H266.808C266.808 33.5745 265.85 30.0265 263.898 27.0988L262.795 27.8339ZM265.483 37.7078C265.483 41.6024 264.696 45.1039 263.136 48.2255L264.321 48.8182C265.983 45.4937 266.808 41.7859 266.808 37.7078H265.483ZM263.134 48.2287C261.604 51.3289 259.608 53.8347 257.149 55.7608L257.966 56.8041C260.597 54.7439 262.714 52.0759 264.322 48.815L263.134 48.2287ZM257.15 55.7599C254.704 57.6675 252.031 59.1386 249.129 60.1749L249.575 61.4229C252.61 60.3388 255.408 58.7989 257.965 56.805L257.15 55.7599ZM249.129 60.1749C246.226 61.2115 243.354 61.7266 240.51 61.7266V63.0518C243.518 63.0518 246.54 62.5067 249.575 61.4229L249.129 60.1749ZM240.51 61.7266C235.806 61.7266 232.415 60.6431 230.21 58.5958L229.309 59.567C231.854 61.9301 235.629 63.0518 240.51 63.0518V61.7266ZM230.21 58.5958C228.022 56.5637 226.86 53.3201 226.86 48.7127H225.535C225.535 53.5198 226.747 57.1886 229.309 59.567L230.21 58.5958ZM238.792 55.6729C243.669 55.6729 247.67 53.9946 250.733 50.6211L249.752 49.7303C246.962 52.8029 243.33 54.3476 238.792 54.3476V55.6729ZM250.73 50.6246C253.799 47.2925 255.358 43.5315 255.358 39.3617H254.033C254.033 43.1647 252.623 46.613 249.755 49.7268L250.73 50.6246ZM255.358 39.3617C255.358 37.4063 254.81 35.6214 253.715 34.0253L252.622 34.7747C253.563 36.1471 254.033 37.6701 254.033 39.3617H255.358ZM253.722 34.0361C252.639 32.3879 251.149 31.511 249.288 31.511V32.8362C250.651 32.8362 251.747 33.4436 252.615 34.7639L253.722 34.0361ZM249.288 31.511C247.477 31.511 245.816 32.256 244.318 33.6626L245.226 34.6285C246.527 33.4058 247.877 32.8362 249.288 32.8362V31.511ZM244.311 33.6696C242.886 35.0496 241.776 36.6946 240.98 38.597L242.203 39.1087C242.933 37.364 243.943 35.8708 245.233 34.6215L244.311 33.6696ZM240.975 38.6092C240.237 40.4749 239.634 42.5699 239.161 44.8909L240.459 45.1554C240.92 42.8964 241.503 40.8778 242.208 39.0965L240.975 38.6092ZM239.159 44.9006C238.474 48.5379 238.13 51.9085 238.13 55.0102H239.455C239.455 52.0052 239.789 48.7178 240.461 45.1458L239.159 44.9006ZM290.525 16.7795L290.896 17.3288L290.905 17.3224L290.525 16.7795ZM279.584 17.2248L279.208 17.7704L279.216 17.7762L279.584 17.2248ZM280.474 9.20974L280.132 8.64272L280.132 8.64272L280.474 9.20974ZM291.161 8.82807L290.785 9.37362L290.794 9.37941L291.161 8.82807ZM274.94 60.4172L274.449 60.8614L274.449 60.8614L274.94 60.4172ZM277.23 32.7461L277.876 32.8953L277.94 32.6166L277.782 32.3785L277.23 32.7461ZM273.668 27.4027L273.327 26.8345L272.731 27.1921L273.117 27.7703L273.668 27.4027ZM289.889 23.7768L289.407 24.2318L289.414 24.2387L289.42 24.2454L289.889 23.7768ZM288.235 59.2722L288.671 59.7709L289.243 59.2711L288.67 58.7726L288.235 59.2722ZM292.407 12.5812C292.407 13.9159 291.72 15.134 290.145 16.2367L290.905 17.3224C292.722 16.0503 293.732 14.4694 293.732 12.5812H292.407ZM290.154 16.2303C288.574 17.2971 286.775 17.8344 284.736 17.8344V19.1597C287.023 19.1597 289.084 18.552 290.896 17.3288L290.154 16.2303ZM284.736 17.8344C282.652 17.8344 281.078 17.4248 279.951 16.6735L279.216 17.7762C280.634 18.7212 282.495 19.1597 284.736 19.1597V17.8344ZM279.96 16.6793C278.902 15.9496 278.402 15.0046 278.402 13.7898H277.077C277.077 15.4587 277.806 16.8038 279.208 17.7703L279.96 16.6793ZM278.402 13.7898C278.402 12.0957 279.17 10.7727 280.817 9.77677L280.132 8.64272C278.132 9.85198 277.077 11.5824 277.077 13.7898H278.402ZM280.817 9.77677C282.543 8.73364 284.354 8.21846 286.263 8.21846V6.89322C284.101 6.89322 282.054 7.48064 280.132 8.64272L280.817 9.77677ZM286.263 8.21846C288.212 8.21846 289.699 8.62484 290.785 9.37355L291.537 8.28259C290.163 7.335 288.386 6.89322 286.263 6.89322V8.21846ZM290.794 9.37941C291.864 10.0932 292.407 11.1274 292.407 12.5812H293.732C293.732 10.7272 293.003 9.25923 291.529 8.27674L290.794 9.37941ZM280.665 61.7266C278.132 61.7266 276.443 61.0928 275.432 59.9731L274.449 60.8614C275.812 62.371 277.94 63.0518 280.665 63.0518V61.7266ZM275.432 59.9731C274.399 58.8293 273.822 57.0263 273.822 54.4377H272.496C272.496 57.1925 273.107 59.3759 274.449 60.8614L275.432 59.9731ZM273.822 54.4377C273.822 53.1509 274.149 50.7224 274.828 47.1015C275.504 43.4991 276.52 38.7647 277.876 32.8953L276.585 32.5969C275.227 38.4745 274.207 43.2289 273.526 46.857C272.848 50.4666 272.496 53.0104 272.496 54.4377H273.822ZM277.782 32.3785L274.219 27.0352L273.117 27.7703L276.679 33.1137L277.782 32.3785ZM274.009 27.9709C279.293 24.8006 283.337 23.2945 286.2 23.2945V21.9692C282.955 21.9692 278.645 23.6437 273.327 26.8345L274.009 27.9709ZM286.2 23.2945C287.87 23.2945 288.873 23.6659 289.407 24.2318L290.371 23.3219C289.463 22.3611 288.006 21.9692 286.2 21.9692V23.2945ZM289.42 24.2454C289.959 24.7837 290.308 25.7563 290.308 27.3391H291.633C291.633 25.6141 291.261 24.2118 290.358 23.3083L289.42 24.2454ZM290.308 27.3391C290.308 27.4272 290.272 27.7172 290.171 28.2795C290.075 28.8162 289.929 29.5484 289.734 30.4788C289.343 32.3387 288.755 34.9738 287.971 38.3864L289.263 38.6832C290.047 35.2681 290.637 32.6234 291.03 30.7514C291.227 29.8159 291.376 29.0691 291.476 28.5138C291.571 27.9841 291.633 27.569 291.633 27.3391H290.308ZM287.971 38.3864C286.402 45.2141 285.601 50.1565 285.601 53.1655H286.926C286.926 50.3222 287.693 45.5108 289.263 38.6832L287.971 38.3864ZM285.601 53.1655C285.601 56.158 286.268 58.4372 287.8 59.7719L288.67 58.7726C287.573 57.8172 286.926 56.0252 286.926 53.1655H285.601ZM287.799 58.7735C285.522 60.766 283.148 61.7266 280.665 61.7266V63.0518C283.526 63.0518 286.199 61.9344 288.671 59.7709L287.799 58.7735Z" fill="#AB795E"/>
</g>
<defs>
<clipPath id="clip0_2_2">
<rect width="297" height="79" fill="white"/>
</clipPath>
</defs>
</svg>
